<?xml version="1.0" encoding="utf-8"?>
<!-- Generator: Adobe Illustrator 28.1.0, SVG Export Plug-In . SVG Version: 6.00 Build 0)  -->
<svg version="1.1" id="Livello_1" xmlns="http://www.w3.org/2000/svg" xmlns:xlink="http://www.w3.org/1999/xlink" x="0px" y="0px"
	 viewBox="0 0 350 110" style="enable-background:new 0 0 350 110;" xml:space="preserve">
<style type="text/css">
	.st0{fill:#757A80;}
	.st1{fill:#91C256;}
	.st2{fill:#FFFFFF;}
	.st3{fill:#89B24B;}
	.st4{opacity:0.2;fill:#343434;enable-background:new    ;}
	.st5{fill:#E7E6E6;}
	.st6{fill:none;}
	.st7{fill:#394D1F;}
</style>
<g>
	<g>
		<g>
			<g>
				<g>
					<path class="st0" d="M138.5,40.5c0.6,1,1.3,2.3,2.1,3.8s1.6,3.1,2.4,4.9c0.8,1.7,1.7,3.5,2.5,5.4c0.8,1.8,1.6,3.5,2.3,5.1
						c0.7-1.6,1.5-3.3,2.3-5.1s1.7-3.6,2.5-5.4c0.8-1.7,1.7-3.4,2.4-4.9c0.8-1.5,1.5-2.8,2.1-3.8h7c0.3,2.1,0.6,4.5,0.9,7.2
						c0.3,2.6,0.5,5.4,0.7,8.2s0.4,5.7,0.6,8.6c0.2,2.9,0.3,5.6,0.5,8.1h-7.5c-0.1-3.1-0.2-6.5-0.4-10.2s-0.4-7.4-0.7-11.1
						c-0.6,1.3-1.3,2.7-2,4.3s-1.5,3.1-2.2,4.7c-0.7,1.6-1.4,3.1-2.1,4.5s-1.2,2.7-1.7,3.7H145c-0.5-1-1-2.2-1.7-3.7
						s-1.4-2.9-2.1-4.5c-0.7-1.6-1.4-3.1-2.2-4.7c-0.7-1.6-1.4-3-2-4.3c-0.3,3.7-0.6,7.4-0.7,11.1c-0.2,3.7-0.3,7.1-0.4,10.2h-7.5
						c0.1-2.5,0.3-5.2,0.5-8.1s0.4-5.7,0.6-8.6c0.2-2.9,0.5-5.6,0.7-8.2c0.3-2.6,0.6-5,0.9-7.2C131.1,40.5,138.5,40.5,138.5,40.5z"
						/>
					<path class="st0" d="M168.7,60.7c0-2.2,0.4-4.1,1.1-5.7c0.7-1.6,1.6-3,2.8-4.1s2.5-1.9,4-2.5s3.1-0.8,4.6-0.8
						c3.7,0,6.6,1.1,8.8,3.2c2.2,2.1,3.2,5.2,3.2,9.3c0,0.4,0,0.8-0.1,1.3c0,0.5-0.1,0.9-0.1,1.3h-16.8c0.2,1.4,0.9,2.5,2.1,3.4
						s2.9,1.2,5.1,1.2c1.4,0,2.7-0.1,4-0.3c1.3-0.2,2.4-0.5,3.2-0.9l1,5.6c-0.4,0.2-0.9,0.4-1.6,0.6s-1.4,0.3-2.2,0.5
						c-0.8,0.1-1.7,0.3-2.6,0.3c-0.9,0.1-1.9,0.1-2.8,0.1c-2.4,0-4.4-0.3-6.1-1c-1.7-0.6-3.2-1.5-4.3-2.7c-1.1-1.1-2-2.5-2.5-4
						C169,64.1,168.7,62.4,168.7,60.7z M186.1,58c0-0.6-0.1-1.2-0.3-1.7c-0.2-0.6-0.5-1-0.8-1.5c-0.4-0.4-0.9-0.8-1.4-1.1
						c-0.6-0.3-1.3-0.4-2.2-0.4c-0.8,0-1.5,0.1-2.1,0.4c-0.6,0.3-1.1,0.6-1.5,1s-0.7,0.9-0.9,1.5s-0.4,1.2-0.5,1.7L186.1,58
						L186.1,58z"/>
					<path class="st0" d="M218.5,71.9c-0.7,0.2-1.4,0.4-2.3,0.5c-0.9,0.2-1.8,0.3-2.7,0.4c-0.9,0.1-1.9,0.2-2.9,0.3
						s-1.9,0.1-2.8,0.1c-2.2,0-4.1-0.3-5.8-0.9s-3.1-1.4-4.3-2.5s-2-2.4-2.7-4c-0.6-1.6-0.9-3.3-0.9-5.3s0.3-3.8,0.8-5.4
						c0.5-1.6,1.3-2.9,2.3-4.1c1-1.1,2.2-2,3.6-2.5c1.4-0.6,3.1-0.9,4.9-0.9c1,0,1.9,0.1,2.8,0.3c0.8,0.2,1.6,0.4,2.5,0.8v-11
						l7.4-1.1L218.5,71.9L218.5,71.9z M201.8,60.3c0,2.1,0.5,3.8,1.5,5.1c1,1.3,2.5,1.9,4.6,1.9c0.7,0,1.3,0,1.8-0.1
						c0.6,0,1-0.1,1.4-0.2V54.6c-0.5-0.3-1.1-0.5-1.8-0.7s-1.5-0.3-2.3-0.3C203.5,53.6,201.8,55.8,201.8,60.3z"/>
					<path class="st0" d="M230.1,41.2c0,1.3-0.4,2.3-1.3,3c-0.9,0.7-1.9,1.1-3.1,1.1s-2.2-0.4-3.1-1.1c-0.9-0.7-1.3-1.7-1.3-3
						s0.4-2.3,1.3-3c0.9-0.7,1.9-1.1,3.1-1.1s2.2,0.4,3.1,1.1C229.6,39,230.1,40,230.1,41.2z M229.4,72.6H222V48.3h7.4V72.6z"/>
					<path class="st0" d="M242.2,47.6c2.2,0,4,0.2,5.5,0.7s2.6,1.1,3.5,2s1.5,1.9,1.9,3.1c0.4,1.2,0.5,2.6,0.5,4.1V72
						c-1.1,0.2-2.5,0.5-4.4,0.8c-1.9,0.3-4.2,0.4-6.9,0.4c-1.7,0-3.2-0.1-4.6-0.4c-1.4-0.3-2.6-0.7-3.6-1.4c-1-0.6-1.8-1.5-2.3-2.5
						s-0.8-2.3-0.8-3.8c0-1.4,0.3-2.6,0.9-3.6c0.6-1,1.4-1.8,2.5-2.4c1-0.6,2.2-1,3.5-1.3s2.7-0.4,4.1-0.4c1,0,1.8,0,2.6,0.1
						c0.7,0.1,1.3,0.2,1.8,0.3v-0.6c0-1.2-0.4-2.1-1.1-2.8c-0.8-0.7-2.1-1.1-4-1.1c-1.3,0-2.5,0.1-3.7,0.3s-2.3,0.4-3.2,0.7
						l-0.9-5.6c0.4-0.1,1-0.3,1.6-0.4s1.3-0.3,2.1-0.4c0.8-0.1,1.6-0.2,2.4-0.3C240.5,47.7,241.4,47.6,242.2,47.6z M242.8,67.8
						c0.7,0,1.4,0,2.1,0c0.7,0,1.2-0.1,1.6-0.1v-5.2c-0.3-0.1-0.7-0.1-1.3-0.2c-0.6-0.1-1.1-0.1-1.6-0.1c-0.7,0-1.3,0-2,0.1
						c-0.6,0.1-1.2,0.2-1.6,0.4c-0.5,0.2-0.8,0.5-1.1,0.9c-0.3,0.4-0.4,0.8-0.4,1.4c0,1.1,0.4,1.8,1.2,2.2
						C240.4,67.6,241.5,67.8,242.8,67.8z"/>
					<path class="st0" d="M255.6,60.5c0-1.8,0.3-3.4,0.9-5c0.6-1.6,1.5-2.9,2.7-4.1c1.2-1.2,2.6-2.1,4.2-2.8c1.7-0.7,3.5-1,5.7-1
						c1.4,0,2.7,0.1,3.8,0.3c1.2,0.2,2.3,0.6,3.4,1l-1.5,5.5c-0.7-0.2-1.5-0.5-2.3-0.6c-0.8-0.2-1.8-0.3-2.8-0.3
						c-2.2,0-3.8,0.6-4.9,1.9c-1.1,1.3-1.6,2.9-1.6,5c0,2.2,0.5,3.9,1.5,5.1c1,1.2,2.8,1.8,5.3,1.8c0.9,0,1.9-0.1,2.9-0.2
						c1-0.2,2-0.4,2.8-0.7l1,5.7c-0.9,0.3-1.9,0.6-3.2,0.9c-1.3,0.2-2.7,0.4-4.3,0.4c-2.4,0-4.4-0.3-6.2-1c-1.7-0.7-3.1-1.6-4.2-2.7
						c-1.1-1.1-1.9-2.5-2.4-4.1C255.8,64,255.6,62.3,255.6,60.5z"/>
					<path class="st0" d="M301.4,60.4c0,1.9-0.3,3.7-0.9,5.3s-1.5,2.9-2.6,4.1c-1.1,1.1-2.5,2-4,2.6c-1.6,0.6-3.3,0.9-5.3,0.9
						c-1.9,0-3.7-0.3-5.2-0.9c-1.6-0.6-2.9-1.5-4-2.6s-2-2.5-2.6-4.1s-0.9-3.3-0.9-5.3c0-1.9,0.3-3.7,1-5.2c0.6-1.6,1.5-2.9,2.7-4
						c1.1-1.1,2.5-2,4.1-2.6s3.3-0.9,5.1-0.9c1.9,0,3.6,0.3,5.2,0.9c1.6,0.6,2.9,1.5,4,2.6s2,2.5,2.6,4
						C301,56.8,301.4,58.5,301.4,60.4z M293.8,60.4c0-2.1-0.5-3.8-1.4-5s-2.2-1.8-3.9-1.8c-1.7,0-3,0.6-3.9,1.8s-1.4,2.9-1.4,5
						s0.5,3.8,1.4,5.1c0.9,1.2,2.2,1.9,3.9,1.9c1.7,0,3-0.6,3.9-1.9C293.4,64.2,293.8,62.6,293.8,60.4z"/>
					<path class="st0" d="M317.9,59.7c0-2.2-0.3-3.8-0.9-4.7s-1.7-1.4-3.2-1.4c-0.5,0-0.9,0-1.4,0.1c-0.5,0-1,0.1-1.4,0.2v18.8h-7.4
						V49.1c0.6-0.2,1.4-0.3,2.2-0.5c0.8-0.2,1.7-0.3,2.7-0.5c0.9-0.1,1.9-0.2,2.9-0.3s2-0.1,2.9-0.1c1.9,0,3.4,0.2,4.6,0.7
						c1.2,0.4,2.1,1,2.9,1.6c1.1-0.7,2.3-1.3,3.6-1.7c1.4-0.4,2.6-0.6,3.8-0.6c2.1,0,3.8,0.3,5.1,0.8c1.3,0.5,2.4,1.3,3.2,2.3
						c0.8,1,1.3,2.2,1.6,3.5c0.3,1.4,0.4,2.9,0.4,4.5v13.8h-7.4V59.7c0-2.2-0.3-3.8-0.9-4.7s-1.7-1.4-3.2-1.4c-0.4,0-1,0.1-1.7,0.3
						s-1.3,0.4-1.8,0.7c0.2,0.7,0.4,1.5,0.4,2.2c0.1,0.8,0.1,1.6,0.1,2.5v13.3h-7.4V59.7H317.9z"/>
				</g>
			</g>
		</g>
	</g>
	<g>
		<path class="st1" d="M58.9,4c-28.2,0-51,22.8-51,51c0,8.5,2.1,16.6,5.8,23.6l4-10.9c-2.8-6.1-3.3-8.5-4-15.4
			C11.3,25.9,32.3,6.9,58.9,6.9S107,28.5,107,55c0,26.6-21.6,48.1-48.1,48.1c-6.5,0-12.8-1.3-18.4-3.7l2.4,3.8
			c6,2.5,13.1,2.7,16,2.7c28.2,0,51-22.8,51-51C109.9,26.8,87.1,4,58.9,4z"/>
	</g>
	<g>
		<g>
			<path class="st2" d="M19.3,87.8c-0.8-1-1.5-2.1-2.2-3.2C17.8,85.7,18.5,86.8,19.3,87.8z"/>
			<path class="st2" d="M21.9,91.2c-0.8-1-1.7-2-2.4-3.1C20.3,89.2,21.1,90.2,21.9,91.2z"/>
			<path class="st2" d="M24.5,93.9c-0.9-0.9-1.7-1.8-2.5-2.7C22.8,92.2,23.6,93.1,24.5,93.9z"/>
			<path class="st2" d="M15.1,81.3c-0.5-0.9-0.9-1.8-1.4-2.7C14.2,79.5,14.6,80.4,15.1,81.3z"/>
			<path class="st2" d="M27.6,96.9c-0.9-0.8-1.9-1.7-2.8-2.6C25.7,95.2,26.6,96.1,27.6,96.9z"/>
			<path class="st2" d="M15.1,81.4C15.1,81.3,15.1,81.3,15.1,81.4C15.1,81.3,15.1,81.3,15.1,81.4z"/>
			<path class="st2" d="M13.7,78.6L13.7,78.6L13.7,78.6z"/>
			<path class="st2" d="M24.8,94.3c-0.1-0.1-0.2-0.3-0.4-0.4C24.6,94.1,24.7,94.2,24.8,94.3z"/>
			<path class="st2" d="M21.9,91.2L21.9,91.2L21.9,91.2z"/>
			<path class="st2" d="M27.6,96.9L27.6,96.9L27.6,96.9z"/>
			<path class="st2" d="M19.5,88.1c-0.1-0.1-0.1-0.2-0.2-0.3C19.4,87.9,19.4,88,19.5,88.1z"/>
			<path class="st2" d="M17.1,84.7L17.1,84.7L17.1,84.7z"/>
			<g>
				<path class="st1" d="M32.6,37.1L32.6,37.1l2.4-7h-0.7c-2.5,0-4.7,1.5-5.5,4L15.2,74.3l-1.5,4.3l0,0c0.4,0.9,0.9,1.8,1.4,2.7
					c0,0,0,0,0,0.1c0.5,0.9,1,1.8,1.5,2.6l1.3-3.9L32.6,37.1z"/>
				<path class="st1" d="M35.7,30.1l-2.8,8.1l0,0L18.4,80.8l-1.3,3.8l0,0c0.7,1.1,1.4,2.1,2.2,3.2c0.1,0.1,0.1,0.2,0.2,0.3
					c0.8,1,1.6,2.1,2.4,3.1l0,0c0.8,0.9,1.7,1.9,2.5,2.7c0.1,0.1,0.2,0.3,0.4,0.4c0.9,0.9,1.8,1.8,2.8,2.6l0,0
					c0.9-0.6,1.6-1.4,2.2-2.4c0.1-0.3,0.3-0.5,0.4-0.8L41,61.5l10.7-31.4V30h-16V30.1z"/>
			</g>
		</g>
		<g>
			<polygon id="XMLID_6_" class="st3" points="54,84.2 48.8,84.3 48.8,84.3 40.9,61.5 43.4,54.3 			"/>
			<g>
				<polygon class="st3" points="54.2,83.7 62.1,60.6 61.8,59.6 59.5,53 51.7,30.1 43.7,53.3 48.6,67.6 54.1,83.5 				"/>
				<polygon class="st4" points="43.4,54.3 40.9,61.5 43.2,68.1 45.7,60.9 45.7,60.9 				"/>
				<polygon class="st4" points="53.9,36.7 51.7,30.1 43.7,53.3 46,59.9 				"/>
				<polygon class="st5" points="54.2,83.7 54.1,83.5 48.6,67.6 				"/>
			</g>
			<g>
				<g>
					<polygon class="st3" points="70.2,37.2 78.6,61.8 78.6,61.8 86.3,84.4 86.3,84.3 86.4,84.3 92,84.3 73.4,30.1 72.6,30.1 
						72.6,30.1 					"/>
					<polyline class="st3" points="81.5,52.1 92.6,84.4 103.1,84.4 107.7,84.4 97.2,53.3 94.9,46.8 89,30.1 89,30.1 89,30.1 					
						"/>
				</g>
				<polygon class="st4" points="91.2,36.3 91.2,36.3 91.2,36.3 89,30.1 88.8,30.1 81.4,51.7 83.7,58.3 				"/>
				<polyline class="st4" points="80.5,67.4 83.4,59.2 73.3,30.1 72.6,30.1 70.2,37.2 80.5,67.4 				"/>
				<g>
					<polygon class="st6" points="62.1,60.7 62.1,60.7 62.1,60.6 54.2,83.7 54.5,84.3 54.5,84.3 62.4,61.6 					"/>
					<path class="st7" d="M54.5,84.3L54.5,84.3L54.5,84.3z"/>
					<polygon class="st2" points="54,84.3 54,84.3 54.5,84.3 54.5,84.3 					"/>
					<polygon class="st2" points="54.2,83.7 54.2,83.7 54.2,83.7 54,84.3 54.5,84.3 					"/>
					<path class="st2" d="M54.5,84.3L54.5,84.3L54.5,84.3z"/>
					<polygon class="st2" points="54.5,84.3 54.5,84.3 54.2,83.7 54.2,83.7 					"/>
					<polygon class="st2" points="62.4,61.6 62.4,61.6 62.1,60.7 62.1,60.7 					"/>
				</g>
				<g>
					<path class="st1" d="M74.2,30.1l-0.9,0.1L74.2,30.1L63.3,61.7v-0.1l-7.9,22.7h11c2.5,0,4.7-1.6,5.5-4.1L78.5,61L89,30.1H74.2z"
						/>
					<path class="st1" d="M72.6,30.1h-1c-2.5,0-4.7,1.6-5.5,4.1L59.7,53L49,84.3h5l0.2-0.6l0,0l7.9-23v0.1l8.1-23.5l0,0L72.6,30.1z"
						/>
				</g>
			</g>
		</g>
	</g>
</g>
</svg>
